<?xml version="1.0" encoding="UTF-8"?>
<!--Generator: Apple Native CoreSVG 232.5-->
<!DOCTYPE svg
PUBLIC "-//W3C//DTD SVG 1.1//EN"
       "http://www.w3.org/Graphics/SVG/1.1/DTD/svg11.dtd">
<svg version="1.1" xmlns="http://www.w3.org/2000/svg" xmlns:xlink="http://www.w3.org/1999/xlink" width="24.2969" height="19.7949">
 <g>
  <rect height="19.7949" opacity="0" width="24.2969" x="0" y="0"/>
  <path d="M3.06641 15.2637L16.2988 15.2637C18.3398 15.2637 19.3652 14.2578 19.3652 12.2363L19.3652 3.02734C19.3652 1.01562 18.3398 0 16.2988 0L3.06641 0C1.01562 0 0 1.01562 0 3.02734L0 12.2363C0 14.2578 1.01562 15.2637 3.06641 15.2637ZM1.57227 12.1582L1.57227 3.11523C1.57227 2.09961 2.12891 1.57227 3.08594 1.57227L16.2695 1.57227C17.2363 1.57227 17.793 2.09961 17.793 3.11523L17.793 12.1582C17.793 13.1738 17.2461 13.6914 16.2695 13.6914L3.08594 13.6914C2.10938 13.6914 1.57227 13.1738 1.57227 12.1582Z" fill="#ffffff" fill-opacity="0.85"/>
  <path d="M7.89062 19.7852L21.2305 19.7852C23.2617 19.7852 24.2969 18.7695 24.2969 16.7578L24.2969 7.54883C24.2969 5.53711 23.2617 4.52148 21.2305 4.52148L7.89062 4.52148C5.83984 4.52148 4.82422 5.53711 4.82422 7.54883L4.82422 16.7578C4.82422 18.7793 5.83984 19.7852 7.89062 19.7852Z" fill="#1e1e1e"/>
  <path d="M7.89062 19.7852L21.2305 19.7852C23.2617 19.7852 24.2969 18.7695 24.2969 16.7578L24.2969 7.54883C24.2969 5.53711 23.2617 4.52148 21.2305 4.52148L7.89062 4.52148C5.83984 4.52148 4.82422 5.53711 4.82422 7.54883L4.82422 16.7578C4.82422 18.7793 5.83984 19.7852 7.89062 19.7852ZM7.91016 18.2129C6.93359 18.2129 6.39648 17.6953 6.39648 16.6797L6.39648 7.63672C6.39648 6.62109 6.93359 6.09375 7.91016 6.09375L21.2012 6.09375C22.168 6.09375 22.7246 6.62109 22.7246 7.63672L22.7246 16.6797C22.7246 17.6953 22.168 18.2129 21.2012 18.2129ZM7.91992 19.2676L20.9961 19.2676C22.6953 19.2676 23.6035 18.4082 23.6035 16.6992L23.6035 16.0742L19.0723 11.7969C18.6914 11.4453 18.2227 11.2695 17.7539 11.2695C17.2656 11.2695 16.8359 11.4258 16.4355 11.7871L12.4902 15.2832L10.918 13.8672C10.5469 13.5254 10.1465 13.3691 9.72656 13.3691C9.3457 13.3691 8.98438 13.5254 8.60352 13.8477L5.3125 16.709C5.3125 18.4082 6.2207 19.2676 7.91992 19.2676Z" fill="#ffffff" fill-opacity="0.85"/>
  <path d="M11.7871 12.0117C12.9199 12.0117 13.8477 11.0645 13.8477 9.92188C13.8477 8.79883 12.9199 7.85156 11.7871 7.85156C10.6445 7.85156 9.7168 8.79883 9.7168 9.92188C9.7168 11.0645 10.6445 12.0117 11.7871 12.0117Z" fill="#ffffff" fill-opacity="0.85"/>
 </g>
</svg>
